<svg width="236" height="97" viewBox="0 0 236 97" fill="none" xmlns="http://www.w3.org/2000/svg">
<g clip-path="url(#clip0_2841_981)">
<path d="M49.7621 77.4L53.985 76.1835C57.2737 74.8258 58.0003 71.2143 58.1423 69.2429V24.6775C58.1423 24.3408 57.9074 24.2104 57.6234 24.406L49.6747 29.7553C49.3852 29.9508 49.1558 30.3853 49.1558 30.722V76.9492C49.1558 77.2968 49.4289 77.4977 49.7567 77.4H49.7621Z" fill="white"/>
<path d="M54.0014 22.1958C56.4816 22.1958 58.4919 20.1918 58.4919 17.7317C58.4919 15.2715 56.4816 13.2729 54.0014 13.2729C51.5212 13.2729 49.5054 15.2715 49.5054 17.7317C49.5054 20.1918 51.5212 22.1958 54.0014 22.1958Z" fill="white"/>
<path d="M75.6627 28.5278C75.6627 28.5278 75.6682 28.5278 75.6736 28.5278C75.6846 28.5278 75.7064 28.5169 75.7228 28.5061C82.1964 25.367 81.59 33.5947 81.59 33.5947V76.949C81.59 77.2966 81.8577 77.4867 82.18 77.3726L89.9757 74.7387C90.3035 74.6355 90.5711 74.2662 90.5711 73.9186V29.9235C90.5711 19.5561 77.8534 25.4051 75.5043 26.5075C75.4005 26.5618 75.1328 26.7356 75.1328 27.1266V28.3866C75.1437 28.5061 75.2148 28.7287 75.6573 28.5223L75.6627 28.5278Z" fill="white"/>
<path d="M16.2467 50.7834L20.1418 49.4692C20.3002 49.4149 20.4422 49.2302 20.4422 49.0619V13.7995C20.4422 13.6311 20.322 13.5714 20.18 13.6692L16.2084 16.4009C16.0664 16.4986 15.9517 16.7213 15.9517 16.8896V50.5716C15.9517 50.74 16.0882 50.8377 16.2467 50.7834Z" fill="white"/>
<path d="M92.2973 26.5129C92.1935 26.5672 91.9258 26.741 91.9258 27.132V28.392C91.9367 28.5114 92.0077 28.7341 92.4448 28.5277H92.4557C92.4557 28.5277 92.4939 28.5169 92.5103 28.506C98.9894 25.367 98.3721 33.5947 98.3721 33.5947V68.3411C98.3721 73.0605 102.213 76.8892 106.965 76.8892C108.347 76.8892 109.659 76.5579 110.817 75.9769C111.625 75.5478 110.795 75.1133 110.795 75.1133C108.735 73.886 107.353 71.6431 107.353 69.0743V32.2044C107.353 21.8424 94.6354 25.405 92.2918 26.5129H92.2973Z" fill="white"/>
<path d="M116.804 41.0624C117.443 41.6272 119.235 42.8057 121.89 41.2525L123.212 40.4379C123.785 40.0794 123.572 39.8242 123.403 39.7156C123.365 39.6939 123.316 39.6721 123.277 39.6504C121.972 38.9227 120.988 37.6301 120.693 35.8869C120.153 32.775 122.005 29.8586 124.829 29.3699C127.653 28.8919 130.379 31.0208 130.92 34.1273C130.986 34.5509 131.024 34.9582 131.007 35.3601C131.007 35.4198 130.997 35.4958 130.997 35.5664V35.6153C130.991 35.7076 130.991 35.8 130.991 35.8977V38.977C130.991 38.977 130.303 42.2518 124.905 44.8531C119.508 47.4491 112.122 51.5494 111.428 61.8788V64.7951C111.428 71.8335 117.17 77.5359 124.25 77.5359H126.823C129.516 77.5359 132.018 76.7049 134.078 75.2984C134.116 75.2658 134.16 75.2386 134.203 75.2115C134.542 74.9942 135.553 74.5163 136.847 75.2984C138.82 76.504 141.169 77.1991 143.709 77.1991H144.343C144.954 77.21 145.02 76.8136 145.025 76.7375V76.7267L145.053 76.2542C145.086 75.7491 144.801 75.5971 144.638 75.5482C144.599 75.5427 144.561 75.5373 144.517 75.5319C141.775 74.9888 139.634 70.6278 139.634 67.831V35.7782C139.634 35.7294 139.634 35.675 139.634 35.6262C139.634 29.044 134.263 23.7109 127.648 23.7109C121.032 23.7109 115.061 29.5274 115.061 36.1095C115.061 38.0266 115.465 39.8296 116.804 41.0733V41.0624ZM130.986 61.6724L130.975 66.3918V67.983C130.975 70.9754 128.533 73.3976 125.523 73.3976C122.513 73.3976 120.071 70.9754 120.071 67.9776V61.9005C120.071 61.9005 119.628 53.4013 130.106 47.0906C130.292 46.9875 130.969 46.6996 130.98 47.6392V61.667L130.986 61.6724Z" fill="white"/>
<path d="M65.1139 77.3785L72.9096 74.7445C73.2374 74.6413 73.505 74.272 73.505 73.9245V24.2107C73.505 23.8685 73.2756 23.7491 72.9915 23.9446L65.0374 29.4243C64.7534 29.6252 64.5239 30.0597 64.5239 30.4073V76.9494C64.5239 77.297 64.7916 77.4871 65.1139 77.373V77.3785Z" fill="white"/>
<path d="M26.0316 97C35.3624 97 42.9231 88.6257 42.9231 78.3017V0.912379C42.9231 0.412743 42.5134 0 42.0108 0C41.8851 0 41.765 0.032585 41.6612 0.0706007C37.34 1.72157 34.2807 5.88159 34.2807 10.753V80.5718C34.2807 80.7564 34.2916 80.941 34.2916 81.1311C34.2916 87.1756 30.5768 92.0742 26.0043 92.0742C21.4318 92.0742 17.717 87.1756 17.717 81.1311C17.717 75.9338 20.4594 71.5837 24.1414 70.4704C24.2179 70.4487 24.2944 70.427 24.3709 70.4052C24.6877 70.2803 25.163 69.9599 24.7751 69.1779L20.9074 61.4172C20.5523 60.7058 19.9186 60.8687 19.6891 60.961C13.4996 63.7362 9.14014 70.4487 9.14014 78.2962C9.14014 88.6202 16.7063 96.9946 26.0316 96.9946V97Z" fill="white"/>
<path d="M225.528 73.0772V75.6622C225.528 75.7057 225.572 75.7546 225.627 75.7546H225.807C225.851 75.7546 225.905 75.7111 225.905 75.6622V74.5109H226.2C226.359 74.5109 226.495 74.6412 226.495 74.8042V75.6622C226.495 75.7057 226.534 75.7546 226.583 75.7546H226.774C226.823 75.7546 226.861 75.7111 226.861 75.6622V74.8042C226.861 74.6141 226.785 74.4457 226.659 74.3263C226.79 74.2014 226.861 74.0276 226.861 73.8375V73.5605C226.861 73.1966 226.572 72.8979 226.2 72.8979H225.714C225.61 72.8979 225.523 72.974 225.523 73.0826L225.528 73.0772ZM225.905 73.2672H226.2C226.359 73.2672 226.495 73.3976 226.495 73.5605V73.8375C226.495 74.0058 226.359 74.1362 226.2 74.1362H225.905V73.2672Z" fill="white"/>
<path d="M223.807 74.3479C223.807 75.6296 224.856 76.6777 226.15 76.6777C227.445 76.6777 228.494 75.635 228.494 74.3479C228.494 73.0608 227.44 72.0181 226.15 72.0181C224.861 72.0181 223.807 73.0608 223.807 74.3479ZM228.155 74.3479C228.155 75.4449 227.254 76.341 226.15 76.341C225.047 76.341 224.14 75.4449 224.14 74.3479C224.14 73.2509 225.041 72.3548 226.15 72.3548C227.259 72.3548 228.155 73.2454 228.155 74.3479Z" fill="white"/>
<path d="M191.642 77.5308H194.215C201.295 77.5308 207.036 71.8285 207.036 64.7901V36.2837C207.036 29.2508 201.295 23.543 194.215 23.543H191.642C184.562 23.543 178.831 29.2453 178.831 36.2837V64.7901C178.831 71.8285 184.567 77.5308 191.642 77.5308ZM187.473 33.0958C187.473 30.098 189.921 27.6758 192.931 27.6758C195.941 27.6758 198.378 30.098 198.378 33.0958V67.978C198.378 70.9758 195.941 73.398 192.931 73.398C189.921 73.398 187.473 70.9758 187.473 67.978V33.0904V33.0958Z" fill="white"/>
<path d="M144.839 64.7898C144.839 71.8281 150.58 77.5305 157.66 77.5305H160.233C162.987 77.5305 165.543 76.667 167.636 75.1898C167.996 74.9726 168.991 74.5272 170.258 75.293C172.23 76.4986 174.585 77.1938 177.125 77.1938H177.764C178.376 77.2046 178.442 76.8082 178.442 76.7321V76.7213L178.469 76.2488C178.496 75.7437 178.218 75.5917 178.054 75.5428C178.021 75.5374 177.983 75.5319 177.944 75.5265C175.202 74.9834 173.066 70.6225 173.066 67.8256V0.912379C173.066 0.412743 172.651 0 172.148 0C172.028 0 171.913 0.032585 171.804 0.0706007C167.483 1.72157 164.424 5.88158 164.424 10.753V24.2323C164.424 24.2323 164.413 28.9517 164.407 28.9517V32.5904V67.9777C164.407 70.9755 161.971 73.3976 158.955 73.3976C155.94 73.3976 153.509 70.9755 153.509 67.9777V32.8131C153.509 29.8261 155.945 27.3985 158.955 27.3985H161.78C162.217 27.3985 162.566 27.0509 162.583 26.6273V25.3674C162.583 24.7646 162.118 24.455 161.927 24.3518C160.447 23.6241 158.19 23.5481 157.792 23.5426H157.671C150.597 23.5426 144.85 29.245 144.85 36.2834V64.7898H144.839Z" fill="white"/>
<path d="M224.173 27.8278L224.205 27.8495C224.287 27.8875 224.457 27.9364 224.697 27.7463L224.708 27.7355C224.708 27.7355 224.719 27.7246 224.724 27.7192C225.385 27.1978 226.615 26.5624 227.516 26.5624C228.139 26.5624 228.723 26.709 229.248 26.9697C229.619 27.1652 229.952 27.4042 230.247 27.6974C230.28 27.7355 230.717 28.2785 230.149 28.3872C228.029 28.8108 226.434 30.6953 226.434 32.9599C226.434 35.5341 228.505 37.625 231.056 37.625H231.138C233.356 37.625 235.219 36.1044 235.71 34.0569C235.902 33.3835 236 32.6775 236 31.9335C236 27.8984 232.979 24.6345 229.248 24.6182H229.166C226.991 24.6182 224.631 25.5305 223.293 26.7796C223.26 26.8176 223.102 26.9914 223.271 27.0946L224.173 27.8224V27.8278Z" fill="white"/>
<path d="M221.665 23.9065C221.665 23.5643 221.436 23.4448 221.152 23.6295L213.203 28.9843C212.919 29.1744 212.684 29.6197 212.684 29.9564V76.9548C212.684 77.3023 212.952 77.5033 213.285 77.4055L217.513 76.189C220.802 74.8313 221.523 71.2198 221.665 69.2484V23.9065Z" fill="white"/>
<path d="M5.62685 50.6372C8.08519 50.6372 10.1775 49.0731 10.9478 46.8899C11.0188 46.6564 10.8385 46.6401 10.8003 46.6401H10.4506C10.2594 46.6401 10.1447 46.765 10.1065 46.8356C10.1065 46.8519 10.0956 46.8627 10.0901 46.8736C9.55472 47.7697 8.56046 48.3725 7.44056 48.3725C5.73065 48.3725 4.34852 46.9985 4.34852 45.3041V29.5764C4.34852 29.5384 4.34852 29.5058 4.34852 29.4678C4.34852 27.9092 5.62139 26.6438 7.18926 26.6438C7.45694 26.6438 7.69731 26.7524 7.86667 26.9262C7.86667 26.9262 8.77352 27.5507 8.66972 30.5268V35.0073C8.60417 38.5319 6.79593 40.0742 6.02565 40.5739C6.02565 40.5739 5.97648 40.6064 5.95463 40.6227C5.8563 40.6933 5.68694 40.8617 5.68694 41.1549V41.5568C5.69241 41.66 5.73611 41.8718 6.03657 41.7415C12.9144 38.3201 12.39 30.1358 12.39 30.1358C12.39 26.5297 8.7462 24.5366 5.63778 24.5366C2.52935 24.5366 0 27.0348 0 30.1249C0 30.2173 0 30.3042 0.0109259 30.3911H0V45.038C0 48.1336 2.51843 50.6317 5.62685 50.6317V50.6372Z" fill="white"/>
<path d="M78.4862 17.2918H80.8735V10.9975H83.8781V9.18359H75.4761V10.9975H78.4862V17.2918Z" fill="white"/>
<path d="M94.4172 15.4399H89.4076V13.8215H92.9859V12.4584H89.4076V10.9378H94.4172V9.18359H87.0312V17.2918H94.4172V15.4399Z" fill="white"/>
<path d="M101.834 17.558C102.779 17.558 103.599 17.3516 104.281 16.9986C104.784 17.4005 105.287 17.6177 105.86 17.6177C106.363 17.6177 106.609 17.5471 106.876 17.4222V16.1405C106.325 16.1405 106.03 16.0211 105.702 15.7387C106.117 15.1413 106.341 14.4244 106.341 13.6695V12.7952C106.341 10.6391 104.566 8.91211 101.834 8.91211C99.1026 8.91211 97.3271 10.6391 97.3271 12.7952V13.6695C97.3271 15.8147 99.1026 17.5526 101.834 17.5526V17.558ZM99.7527 12.7028C99.7527 11.5678 100.485 10.6554 101.834 10.6554C103.183 10.6554 103.915 11.5678 103.915 12.7028V13.7618C103.915 13.9193 103.905 14.0768 103.866 14.2235L102.998 13.4957L101.566 14.6634L102.719 15.6463C102.462 15.7441 102.167 15.8038 101.84 15.8038C100.49 15.8038 99.7582 14.8914 99.7582 13.7618V12.7028H99.7527Z" fill="white"/>
<path d="M113.756 17.558C116.695 17.558 117.995 16.0211 117.995 14.1474V9.17822H115.815V14.0497C115.815 15.125 115.214 15.7658 113.881 15.7658C112.548 15.7658 111.887 15.1195 111.887 14.0497V9.17822H109.5V14.1474C109.5 16.0591 110.844 17.558 113.761 17.558H113.756Z" fill="white"/>
<path d="M123.877 9.18359H121.501V17.2918H123.877V9.18359Z" fill="white"/>
<path d="M135.115 15.4562H129.882V9.18359H127.505V17.2918H135.115V15.4562Z" fill="white"/>
<path d="M140.169 15.6137H143.643L144.342 17.2918H146.877L143.255 9.18359H140.83L137.251 17.2918H139.458L140.169 15.6137ZM141.944 11.3505L143.097 14.1745H140.759L141.944 11.3505Z" fill="white"/>
</g>
<defs>
<clipPath id="clip0_2841_981">
<rect width="236" height="97" fill="white"/>
</clipPath>
</defs>
</svg>
